<svg width="40" height="40" viewBox="0 0 40 40" fill="none" xmlns="http://www.w3.org/2000/svg">
<circle cx="20" cy="20" r="20" fill="black"/>
<path fill-rule="evenodd" clip-rule="evenodd" d="M18.1382 9C17.4933 9 17.0571 9.56205 17.0571 10.1149V27.8767C17.0571 28.4295 17.4933 29 18.1382 29H21.3815C22.0264 29 22.4625 28.4295 22.4625 27.8767V10.1149C22.4625 9.56205 22.0264 9 21.3815 9H18.1382ZM18.6787 10.6216H20.8409V12.7837H18.6787V10.6216ZM11.0811 11.1621C10.4962 11.1621 10 11.6583 10 12.2432V27.9189C10 28.5038 10.4962 28.9999 11.0811 28.9999H14.3243C14.9092 28.9999 15.4054 28.5038 15.4054 27.9189V12.2432C15.4054 11.6583 14.9092 11.1621 14.3243 11.1621H11.0811ZM11.6216 12.7838H13.7837V14.4054H11.6216V12.7838ZM18.6787 14.4054H20.8409V23.5946H18.6787V14.4054ZM11.6216 16.027H13.7837V24.1351H11.6216V16.027ZM18.6787 25.2162H20.8409V27.3783H18.6787V25.2162ZM11.6216 25.7567H13.7837V27.3783H11.6216V25.7567ZM27.1523 25.698L29.2849 25.3414L29.5523 26.9409L27.4197 27.2974L27.1523 25.698ZM27.9478 17.3444L29.0174 23.742L26.8848 24.0986L25.8152 17.7009L27.9478 17.3444ZM25.2805 14.5021L27.4131 14.1455L27.6805 15.7449L25.5479 16.1015L25.2805 14.5021ZM24.4798 12.9918C23.9325 13.0833 23.4876 13.6129 23.5876 14.2114L25.9122 28.1147C26.0122 28.7132 26.6067 29.0775 27.1539 28.986L30.3528 28.4512C30.9001 28.3597 31.3436 27.8218 31.2436 27.2233L28.919 13.32C28.819 12.7215 28.226 12.3655 27.6787 12.457L24.4798 12.9918Z" fill="white"/>
</svg>
