<svg width="19" height="14" viewBox="0 0 19 14" fill="none" xmlns="http://www.w3.org/2000/svg">
<path fill-rule="evenodd" clip-rule="evenodd" d="M10.4659 14C10.8847 14 11.2243 13.6593 11.2243 13.2391C11.2243 12.1103 10.8931 11.059 10.323 10.1778C11.0477 9.52651 12.005 9.13043 13.0545 9.13043C15.3163 9.13043 17.1499 10.97 17.1499 13.2391C17.1499 13.6593 17.4894 14 17.9083 14C18.3271 14 18.6667 13.6593 18.6667 13.2391C18.6667 10.1295 16.154 7.6087 13.0545 7.6087C11.6269 7.6087 10.3238 8.1435 9.33333 9.02431C8.34289 8.1435 7.03977 7.6087 5.61213 7.6087C2.51264 7.6087 0 10.1295 0 13.2391C0 13.6593 0.339546 14 0.758397 14C1.17725 14 1.51679 13.6593 1.51679 13.2391C1.51679 10.97 3.35034 9.13043 5.61213 9.13043C6.66164 9.13043 7.61895 9.52651 8.34364 10.1778C7.77352 11.059 7.4424 12.1103 7.4424 13.2391C7.4424 13.6593 7.78194 14 8.20079 14C8.61965 14 8.95919 13.6593 8.95919 13.2391C8.95919 12.6258 9.09316 12.0438 9.33334 11.5211C9.57351 12.0438 9.70747 12.6258 9.70747 13.2391C9.70747 13.6593 10.047 14 10.4659 14ZM5.61213 7C3.68542 7 2.12351 5.433 2.12351 3.5C2.12351 1.567 3.68542 0 5.61213 0C7.53885 0 9.10076 1.567 9.10076 3.5C9.10076 5.433 7.53885 7 5.61213 7ZM5.61213 5.47826C6.70115 5.47826 7.58396 4.59256 7.58396 3.5C7.58396 2.40744 6.70115 1.52174 5.61213 1.52174C4.52312 1.52174 3.6403 2.40744 3.6403 3.5C3.6403 4.59256 4.52312 5.47826 5.61213 5.47826ZM13.0545 5.47826C14.1435 5.47826 15.0264 4.59256 15.0264 3.5C15.0264 2.40744 14.1435 1.52174 13.0545 1.52174C11.9655 1.52174 11.0827 2.40744 11.0827 3.5C11.0827 4.59256 11.9655 5.47826 13.0545 5.47826ZM13.0545 7C11.1278 7 9.56591 5.433 9.56591 3.5C9.56591 1.567 11.1278 0 13.0545 0C14.9812 0 16.5432 1.567 16.5432 3.5C16.5432 5.433 14.9812 7 13.0545 7Z" fill="black"/>
</svg>
