<svg width="16" height="16" viewBox="0 0 16 16" fill="none" xmlns="http://www.w3.org/2000/svg">
<path fill-rule="evenodd" clip-rule="evenodd" d="M7.28179 13.7774C8.8124 13.7774 10.2253 13.2594 11.3556 12.4117L14.1578 15.2139L15.5 13.8716L12.6978 11.0694C13.5455 9.93914 14.0636 8.52627 14.0636 6.99566C14.0636 3.25154 11.0259 0.213867 7.28179 0.213867C3.53768 0.213867 0.5 3.25154 0.5 6.99566C0.5 10.7398 3.53768 13.7774 7.28179 13.7774ZM7.28179 2.0977C9.9898 2.0977 12.1797 4.28765 12.1797 6.99566C12.1797 9.70366 9.9898 11.8936 7.28179 11.8936C4.57378 11.8936 2.38383 9.70366 2.38383 6.99566C2.38383 4.28765 4.57378 2.0977 7.28179 2.0977Z" fill="black"/>
</svg>
