<svg width="19" height="20" viewBox="0 0 19 20" fill="none" xmlns="http://www.w3.org/2000/svg">
<path fill-rule="evenodd" clip-rule="evenodd" d="M17.5545 11.3568L4.90606 12.6356C4.56202 12.6699 4.2604 13.0034 4.2604 13.3489C4.2604 13.662 4.51515 13.917 4.82828 13.917H17.4693C17.9404 13.917 18.3216 14.2986 18.3216 14.7691C18.3216 15.2396 17.9404 15.6214 17.4693 15.6214H4.82828C4.81374 15.6214 4.79899 15.621 4.78444 15.6202C3.56667 15.597 2.58061 14.6109 2.55737 13.3931C2.55677 13.3784 2.55636 13.3636 2.55636 13.3491C2.55636 12.758 2.78141 12.1836 3.1903 11.7317C3.59939 11.2798 4.14828 10.9986 4.73657 10.9398L5.14545 10.899L2.48384 1.70424H0.852121C0.381414 1.70424 0 1.32263 0 0.852121C0 0.381616 0.381414 0 0.852121 0H3.12424C3.50364 0 3.83737 0.250909 3.94263 0.615152L4.42242 2.27212H17.4693C17.9404 2.27212 18.3216 2.65354 18.3216 3.12424V10.5089C18.3216 10.9469 17.9897 11.3131 17.5545 11.3568ZM16.6174 3.97636H4.91556L6.8697 10.7267L16.6174 9.73778V3.97636Z" fill="black"/>
<path d="M2.98223 20C4.00189 20 4.82849 19.1734 4.82849 18.1537C4.82849 17.1341 4.00189 16.3075 2.98223 16.3075C1.96257 16.3075 1.13597 17.1341 1.13597 18.1537C1.13597 19.1734 1.96257 20 2.98223 20Z" fill="black"/>
<path d="M16.4754 20C17.495 20 18.3216 19.1734 18.3216 18.1537C18.3216 17.1341 17.495 16.3075 16.4754 16.3075C15.4557 16.3075 14.6291 17.1341 14.6291 18.1537C14.6291 19.1734 15.4557 20 16.4754 20Z" fill="black"/>
</svg>
