<svg width="100" height="16" viewBox="0 0 100 16" fill="none" xmlns="http://www.w3.org/2000/svg">
<path fill-rule="evenodd" clip-rule="evenodd" d="M8.38791 0.599609L10.9926 5.66081L16.7758 6.4689L12.5819 10.403L13.5752 15.9746L8.38791 13.3589L3.20065 15.9746L4.19395 10.403L0 6.4689L5.80532 5.66081L8.38791 0.599609Z" fill="#EBA430"/>
<path fill-rule="evenodd" clip-rule="evenodd" d="M28.3556 0.599609L30.9602 5.66081L36.7435 6.4689L32.5495 10.403L33.5428 15.9746L28.3556 13.3589L23.1683 15.9746L24.1616 10.403L19.9677 6.4689L25.773 5.66081L28.3556 0.599609Z" fill="#EBA430"/>
<path fill-rule="evenodd" clip-rule="evenodd" d="M48.3232 0.599609L50.9279 5.66081L56.7111 6.4689L52.5172 10.403L53.5105 15.9746L48.3232 13.3589L43.136 15.9746L44.1293 10.403L39.9353 6.4689L45.7406 5.66081L48.3232 0.599609Z" fill="#EBA430"/>
<path fill-rule="evenodd" clip-rule="evenodd" d="M68.2909 0.599609L70.8955 5.66081L76.6788 6.4689L72.4848 10.403L73.4781 15.9746L68.2909 13.3589L63.1036 15.9746L64.0969 10.403L59.903 6.4689L65.7083 5.66081L68.2909 0.599609Z" fill="#EBA430"/>
<path fill-rule="evenodd" clip-rule="evenodd" d="M88.2585 0.599609L90.8632 5.66081L96.6464 6.4689L92.4525 10.403L93.4458 15.9746L88.2585 13.3589L83.0713 15.9746L84.0646 10.403L79.8706 6.4689L85.6759 5.66081L88.2585 0.599609Z" fill="#DDDDDD"/>
</svg>
